<?xml version="1.0" encoding="UTF-8"?>
<svg xmlns="http://www.w3.org/2000/svg" xmlns:xlink="http://www.w3.org/1999/xlink" width="600" height="450" viewBox="0 0 600 450">
<path fill-rule="nonzero" fill="rgb(41.176471%, 41.176471%, 41.176471%)" fill-opacity="1" stroke-width="2" stroke-linecap="butt" stroke-linejoin="miter" stroke="rgb(0%, 0%, 0%)" stroke-opacity="1" stroke-miterlimit="2" d="M 313.65625 106.605469 L 313.632812 105.863281 L 313.5625 105.125 L 313.445312 104.394531 L 313.28125 103.671875 L 313.070312 102.960938 L 312.820312 102.261719 L 312.519531 101.582031 L 312.179688 100.925781 L 311.800781 100.289062 L 311.378906 99.675781 L 310.921875 99.09375 L 310.425781 98.539062 L 309.898438 98.019531 L 309.339844 97.535156 L 308.75 97.085938 L 308.128906 96.675781 L 307.488281 96.304688 L 306.824219 95.976562 L 306.140625 95.6875 L 305.4375 95.445312 L 304.722656 95.246094 L 304 95.097656 L 303.265625 94.992188 L 302.527344 94.933594 L 301.785156 94.921875 L 301.042969 94.957031 L 300.304688 95.039062 L 299.574219 95.167969 L 298.855469 95.339844 L 298.148438 95.5625 L 297.453125 95.824219 L 296.78125 96.132812 L 296.125 96.484375 L 295.496094 96.875 L 294.890625 97.304688 L 294.316406 97.773438 L 293.773438 98.277344 L 293.261719 98.8125 L 292.785156 99.382812 L 292.34375 99.980469 L 291.941406 100.601562 L 291.582031 101.25 L 291.261719 101.921875 L 290.988281 102.609375 L 290.757812 103.3125 L 290.570312 104.03125 L 290.429688 104.761719 L 290.335938 105.496094 L 290.289062 106.234375 L 290.289062 106.976562 L 290.335938 107.71875 L 290.429688 108.453125 L 290.570312 109.179688 L 290.757812 109.898438 L 290.988281 110.605469 L 291.261719 111.292969 L 291.582031 111.960938 L 291.941406 112.609375 L 292.34375 113.234375 L 292.785156 113.832031 L 293.261719 114.398438 L 293.773438 114.9375 L 294.316406 115.441406 L 294.890625 115.90625 L 295.496094 116.335938 L 296.125 116.730469 L 296.78125 117.078125 L 297.453125 117.386719 L 298.148438 117.652344 L 298.855469 117.871094 L 299.574219 118.046875 L 300.304688 118.175781 L 301.042969 118.257812 L 301.785156 118.292969 L 302.527344 118.28125 L 303.265625 118.222656 L 304 118.117188 L 304.722656 117.964844 L 305.4375 117.765625 L 306.140625 117.523438 L 306.824219 117.238281 L 307.488281 116.910156 L 308.128906 116.539062 L 308.75 116.128906 L 309.339844 115.679688 L 309.898438 115.191406 L 310.425781 114.671875 L 310.921875 114.121094 L 311.378906 113.535156 L 311.800781 112.925781 L 312.179688 112.289062 L 312.519531 111.628906 L 312.820312 110.949219 L 313.070312 110.253906 L 313.28125 109.542969 L 313.445312 108.820312 L 313.5625 108.085938 L 313.632812 107.347656 Z M 313.65625 106.605469 "/>
<path fill="none" stroke-width="3" stroke-linecap="butt" stroke-linejoin="miter" stroke="rgb(25.098041%, 38.82353%, 84.705883%)" stroke-opacity="1" stroke-miterlimit="2" d="M 323.675781 162.53125 L 325.976562 162.144531 L 328.242188 161.664062 L 330.464844 161.097656 L 332.640625 160.445312 L 334.773438 159.714844 L 336.855469 158.902344 L 338.890625 158.015625 L 340.871094 157.058594 L 342.796875 156.03125 L 344.671875 154.9375 L 346.484375 153.777344 L 348.242188 152.554688 L 349.9375 151.273438 L 351.574219 149.9375 L 353.148438 148.542969 L 354.660156 147.101562 L 356.105469 145.609375 L 357.488281 144.066406 L 358.800781 142.484375 L 360.050781 140.855469 L 361.230469 139.191406 L 362.34375 137.488281 L 363.386719 135.746094 L 364.363281 133.976562 L 365.265625 132.171875 L 366.097656 130.339844 L 366.859375 128.480469 L 367.546875 126.597656 L 368.164062 124.695312 L 368.707031 122.769531 L 369.179688 120.828125 L 369.574219 118.871094 L 369.898438 116.898438 L 370.144531 114.914062 L 370.320312 112.921875 L 370.417969 110.925781 L 370.441406 108.921875 L 370.386719 106.914062 L 370.257812 104.910156 L 370.054688 102.90625 L 369.773438 100.902344 L 369.414062 98.910156 L 368.980469 96.925781 L 368.46875 94.949219 L 367.882812 92.988281 L 367.21875 91.046875 L 366.476562 89.117188 L 365.660156 87.214844 L 364.765625 85.332031 L 363.796875 83.472656 L 362.75 81.644531 L 361.625 79.847656 L 360.429688 78.085938 L 359.15625 76.359375 L 357.804688 74.675781 L 356.382812 73.03125 L 354.886719 71.433594 L 353.316406 69.882812 L 351.671875 68.382812 L 349.957031 66.941406 L 348.171875 65.558594 L 346.320312 64.234375 L 344.398438 62.976562 L 342.40625 61.789062 L 340.351562 60.671875 L 338.234375 59.632812 L 336.054688 58.675781 L 333.8125 57.796875 L 331.515625 57.007812 L 329.164062 56.3125 L 326.761719 55.710938 L 324.308594 55.210938 L 321.8125 54.816406 L 319.273438 54.527344 L 316.695312 54.351562 L 314.085938 54.292969 L 311.449219 54.355469 L 308.789062 54.542969 L 306.113281 54.855469 L 303.425781 55.304688 L 300.734375 55.886719 L 298.046875 56.609375 L 295.371094 57.472656 L 292.714844 58.480469 L 290.085938 59.636719 L 287.496094 60.9375 L 284.949219 62.390625 L 282.464844 63.992188 L 280.046875 65.738281 L 277.707031 67.632812 L 275.457031 69.675781 L 273.308594 71.855469 L 271.269531 74.171875 L 269.355469 76.617188 L 267.578125 79.1875 L 265.941406 81.871094 L 264.460938 84.660156 L 263.144531 87.546875 L 261.996094 90.515625 "/>
<path fill="none" stroke-width="3" stroke-linecap="butt" stroke-linejoin="miter" stroke="rgb(25.098041%, 38.82353%, 84.705883%)" stroke-opacity="1" stroke-miterlimit="2" d="M 261.996094 90.515625 L 259.632812 96.097656 L 257.859375 101.828125 L 256.675781 107.621094 L 256.058594 113.402344 L 255.976562 119.105469 L 256.390625 124.671875 L 257.257812 130.0625 L 258.527344 135.242188 L 260.15625 140.183594 L 262.105469 144.871094 L 264.332031 149.292969 L 266.796875 153.445312 L 269.464844 157.324219 L 272.308594 160.933594 L 275.300781 164.273438 L 278.414062 167.347656 L 281.628906 170.167969 L 284.921875 172.734375 L 288.277344 175.0625 L 291.679688 177.148438 L 295.117188 179.011719 L 298.574219 180.652344 L 302.042969 182.078125 L 305.511719 183.300781 L 308.96875 184.320312 L 312.410156 185.152344 L 315.828125 185.800781 L 319.214844 186.265625 L 322.5625 186.5625 L 325.867188 186.691406 L 329.125 186.660156 L 332.332031 186.472656 L 335.480469 186.136719 L 338.566406 185.65625 L 341.589844 185.035156 L 344.542969 184.277344 L 347.425781 183.390625 L 350.234375 182.378906 L 352.964844 181.242188 L 355.613281 179.988281 L 358.179688 178.621094 L 360.660156 177.140625 L 363.050781 175.558594 L 365.351562 173.871094 L 367.558594 172.082031 L 369.667969 170.199219 L 371.679688 168.222656 L 373.589844 166.15625 L 375.394531 164.003906 L 377.097656 161.773438 L 378.691406 159.457031 L 380.171875 157.070312 L 381.542969 154.605469 L 382.792969 152.074219 L 383.929688 149.472656 L 384.945312 146.8125 L 385.835938 144.089844 L 386.601562 141.3125 L 387.238281 138.480469 L 387.742188 135.601562 L 388.109375 132.675781 L 388.34375 129.707031 L 388.433594 126.703125 L 388.378906 123.664062 L 388.179688 120.59375 L 387.828125 117.503906 L 387.324219 114.390625 L 386.660156 111.265625 L 385.832031 108.128906 L 384.84375 104.992188 L 383.679688 101.855469 L 382.347656 98.734375 L 380.835938 95.625 L 379.140625 92.542969 L 377.257812 89.496094 L 375.1875 86.492188 L 372.917969 83.542969 L 370.453125 80.65625 L 367.78125 77.847656 L 364.90625 75.128906 L 361.816406 72.519531 L 358.511719 70.027344 L 354.996094 67.679688 L 351.257812 65.488281 L 347.304688 63.480469 L 343.132812 61.679688 L 338.75 60.113281 L 334.160156 58.804688 L 329.371094 57.789062 L 324.402344 57.101562 L 319.273438 56.773438 L 314 56.84375 L 308.628906 57.351562 L 303.191406 58.324219 L 297.742188 59.804688 L 292.339844 61.808594 L 287.058594 64.355469 L 281.96875 67.453125 L 277.15625 71.089844 "/>
<path fill="none" stroke-width="3" stroke-linecap="butt" stroke-linejoin="miter" stroke="rgb(25.098041%, 38.82353%, 84.705883%)" stroke-opacity="1" stroke-miterlimit="2" d="M 277.15625 71.089844 L 270.992188 76.210938 L 265.535156 82.035156 L 260.886719 88.402344 L 257.085938 95.148438 L 254.136719 102.113281 L 252 109.15625 L 250.617188 116.167969 L 249.914062 123.050781 L 249.816406 129.746094 L 250.25 136.203125 L 251.148438 142.398438 L 252.445312 148.316406 L 254.089844 153.941406 L 256.03125 159.269531 L 258.226562 164.308594 L 260.644531 169.0625 L 263.246094 173.53125 L 266.007812 177.726562 L 268.902344 181.660156 L 271.910156 185.332031 L 275.015625 188.753906 L 278.199219 191.9375 L 281.449219 194.890625 L 284.746094 197.617188 L 288.089844 200.125 L 291.460938 202.425781 L 294.859375 204.527344 L 298.265625 206.429688 L 301.683594 208.140625 L 305.101562 209.671875 L 308.511719 211.023438 L 311.914062 212.203125 L 315.296875 213.214844 L 318.664062 214.066406 L 322.003906 214.757812 L 325.316406 215.296875 L 328.597656 215.683594 L 331.839844 215.925781 L 335.046875 216.027344 L 338.210938 215.992188 L 341.328125 215.820312 L 344.398438 215.515625 L 347.421875 215.082031 L 350.390625 214.523438 L 353.304688 213.84375 L 356.160156 213.039062 L 358.957031 212.117188 L 361.6875 211.082031 L 364.355469 209.933594 L 366.957031 208.675781 L 369.492188 207.304688 L 371.953125 205.828125 L 374.339844 204.25 L 376.648438 202.566406 L 378.882812 200.785156 L 381.035156 198.902344 L 383.101562 196.921875 L 385.085938 194.847656 L 386.980469 192.679688 L 388.785156 190.417969 L 390.496094 188.070312 L 392.113281 185.632812 L 393.628906 183.105469 L 395.042969 180.496094 L 396.355469 177.804688 L 397.554688 175.03125 L 398.648438 172.175781 L 399.625 169.246094 L 400.484375 166.238281 L 401.21875 163.160156 L 401.832031 160.007812 L 402.3125 156.785156 L 402.660156 153.496094 L 402.871094 150.144531 L 402.933594 146.730469 L 402.851562 143.253906 L 402.613281 139.726562 L 402.21875 136.140625 L 401.652344 132.511719 L 400.917969 128.835938 L 400.003906 125.117188 L 398.902344 121.367188 L 397.609375 117.585938 L 396.109375 113.78125 L 394.402344 109.964844 L 392.472656 106.136719 L 390.3125 102.308594 L 387.910156 98.492188 L 385.257812 94.703125 L 382.335938 90.949219 L 379.140625 87.25 L 375.65625 83.625 L 371.867188 80.09375 L 367.765625 76.683594 L 363.332031 73.425781 L 358.554688 70.347656 L 353.425781 67.5 L 347.9375 64.929688 L 342.085938 62.683594 "/>
<path fill="none" stroke-width="3" stroke-linecap="butt" stroke-linejoin="miter" stroke="rgb(25.098041%, 38.82353%, 84.705883%)" stroke-opacity="1" stroke-miterlimit="2" d="M 342.085938 62.683594 L 328.386719 57.101562 L 313.589844 53.609375 L 298.261719 52.585938 L 283.097656 54.089844 L 268.730469 57.851562 L 255.558594 63.390625 L 243.738281 70.210938 L 233.265625 77.886719 L 224.039062 86.09375 L 215.933594 94.601562 L 208.8125 103.25 L 202.558594 111.929688 L 197.0625 120.574219 L 192.230469 129.132812 L 187.988281 137.570312 L 184.265625 145.867188 L 181.007812 154.007812 L 178.164062 161.988281 L 175.695312 169.800781 L 173.5625 177.445312 L 171.738281 184.921875 L 170.191406 192.234375 L 168.898438 199.375 L 167.84375 206.355469 L 167.003906 213.175781 L 166.363281 219.835938 L 165.90625 226.34375 L 165.621094 232.699219 L 165.496094 238.910156 L 165.523438 244.972656 L 165.6875 250.894531 L 165.984375 256.675781 L 166.402344 262.324219 L 166.9375 267.839844 L 167.582031 273.222656 L 168.328125 278.476562 L 169.175781 283.609375 L 170.113281 288.617188 L 171.136719 293.503906 L 172.242188 298.273438 L 173.429688 302.925781 L 174.6875 307.464844 L 176.019531 311.894531 L 177.421875 316.210938 L 178.882812 320.417969 L 180.410156 324.515625 L 181.996094 328.511719 L 183.636719 332.402344 L 185.332031 336.191406 L 187.074219 339.878906 L 188.871094 343.46875 L 190.714844 346.957031 L 192.601562 350.347656 L 194.53125 353.644531 L 196.5 356.84375 L 198.511719 359.953125 L 200.5625 362.964844 L 202.648438 365.886719 L 204.769531 368.71875 L 206.921875 371.460938 L 209.105469 374.113281 L 211.324219 376.675781 L 213.570312 379.148438 L 215.84375 381.539062 L 218.144531 383.839844 L 220.472656 386.054688 L 222.824219 388.1875 L 225.199219 390.230469 L 227.601562 392.195312 L 230.019531 394.070312 L 232.460938 395.867188 L 234.921875 397.578125 L 237.402344 399.210938 L 239.902344 400.757812 L 242.414062 402.226562 L 244.949219 403.613281 L 247.496094 404.917969 L 250.054688 406.144531 L 252.632812 407.289062 L 255.222656 408.355469 L 257.820312 409.339844 L 260.433594 410.246094 L 263.058594 411.074219 L 265.691406 411.820312 L 268.335938 412.488281 L 270.988281 413.078125 L 273.648438 413.589844 L 276.3125 414.019531 L 278.988281 414.375 L 281.667969 414.648438 L 284.351562 414.84375 L 287.039062 414.960938 L 289.734375 415 L 292.429688 414.960938 L 295.128906 414.839844 L 297.828125 414.640625 L 300.53125 414.363281 L 303.230469 414.007812 L 305.933594 413.570312 "/>
<path fill="none" stroke-width="3" stroke-linecap="butt" stroke-linejoin="miter" stroke="rgb(79.607844%, 23.529412%, 20%)" stroke-opacity="1" stroke-miterlimit="2" d="M 290.429688 48.917969 L 282.351562 49.976562 L 274.53125 51.792969 L 267.054688 54.296875 L 259.980469 57.410156 L 253.355469 61.050781 L 247.207031 65.132812 L 241.542969 69.589844 L 236.371094 74.34375 L 231.683594 79.339844 L 227.46875 84.519531 L 223.714844 89.835938 L 220.402344 95.25 L 217.507812 100.71875 L 215.019531 106.21875 L 212.914062 111.722656 L 211.167969 117.203125 L 209.769531 122.644531 L 208.691406 128.027344 L 207.925781 133.339844 L 207.449219 138.574219 L 207.246094 143.710938 L 207.304688 148.75 L 207.609375 153.675781 L 208.148438 158.488281 L 208.90625 163.179688 L 209.871094 167.742188 L 211.03125 172.175781 L 212.382812 176.472656 L 213.910156 180.632812 L 215.601562 184.652344 L 217.453125 188.527344 L 219.457031 192.261719 L 221.601562 195.84375 L 223.878906 199.28125 L 226.28125 202.566406 L 228.808594 205.699219 L 231.445312 208.675781 L 234.191406 211.503906 L 237.035156 214.171875 L 239.976562 216.683594 L 243.003906 219.039062 L 246.117188 221.234375 L 249.308594 223.269531 L 252.570312 225.144531 L 255.902344 226.859375 L 259.292969 228.40625 L 262.742188 229.792969 L 266.246094 231.015625 L 269.796875 232.070312 L 273.390625 232.960938 L 277.019531 233.679688 L 280.6875 234.230469 L 284.378906 234.613281 L 288.09375 234.820312 L 291.832031 234.855469 L 295.578125 234.71875 L 299.335938 234.40625 L 303.097656 233.914062 L 306.859375 233.246094 L 310.609375 232.398438 L 314.351562 231.367188 L 318.074219 230.152344 L 321.769531 228.753906 L 325.4375 227.171875 L 329.070312 225.398438 L 332.65625 223.433594 L 336.195312 221.28125 L 339.675781 218.933594 L 343.085938 216.386719 L 346.429688 213.648438 L 349.683594 210.710938 L 352.851562 207.570312 L 355.914062 204.226562 L 358.867188 200.683594 L 361.691406 196.933594 L 364.382812 192.976562 L 366.925781 188.816406 L 369.304688 184.449219 L 371.503906 179.871094 L 373.507812 175.09375 L 375.300781 170.109375 L 376.859375 164.921875 L 378.164062 159.539062 L 379.195312 153.96875 L 379.925781 148.210938 L 380.328125 142.277344 L 380.375 136.183594 L 380.035156 129.945312 L 379.28125 123.585938 L 378.074219 117.125 L 376.382812 110.597656 L 374.171875 104.042969 L 371.410156 97.507812 L 368.0625 91.050781 L 364.105469 84.738281 L 359.519531 78.648438 L 354.296875 72.871094 L 348.453125 67.492188 L 342.011719 62.621094 "/>
<path fill="none" stroke-width="3" stroke-linecap="butt" stroke-linejoin="miter" stroke="rgb(79.607844%, 23.529412%, 20%)" stroke-opacity="1" stroke-miterlimit="2" d="M 342.011719 62.621094 L 329.898438 54.503906 L 316.777344 48.265625 L 303.140625 44.015625 L 289.460938 41.671875 L 276.09375 41.003906 L 263.269531 41.734375 L 251.109375 43.59375 L 239.664062 46.347656 L 228.929688 49.792969 L 218.882812 53.777344 L 209.488281 58.179688 L 200.699219 62.898438 L 192.472656 67.863281 L 184.773438 73.015625 L 177.554688 78.304688 L 170.789062 83.699219 L 164.433594 89.167969 L 158.46875 94.683594 L 152.863281 100.226562 L 147.59375 105.789062 L 142.636719 111.351562 L 137.976562 116.90625 L 133.59375 122.441406 L 129.472656 127.953125 L 125.597656 133.4375 L 121.953125 138.882812 L 118.53125 144.289062 L 115.320312 149.652344 L 112.308594 154.972656 L 109.484375 160.242188 L 106.839844 165.460938 L 104.371094 170.628906 L 102.066406 175.742188 L 99.921875 180.800781 L 97.929688 185.800781 L 96.082031 190.75 L 94.375 195.636719 L 92.804688 200.46875 L 91.363281 205.238281 L 90.050781 209.953125 L 88.855469 214.609375 L 87.78125 219.203125 L 86.816406 223.738281 L 85.964844 228.210938 L 85.21875 232.628906 L 84.574219 236.984375 L 84.03125 241.277344 L 83.585938 245.511719 L 83.238281 249.6875 L 82.976562 253.800781 L 82.808594 257.855469 L 82.726562 261.851562 L 82.730469 265.785156 L 82.816406 269.660156 L 82.984375 273.472656 L 83.230469 277.226562 L 83.550781 280.921875 L 83.949219 284.554688 L 84.421875 288.128906 L 84.964844 291.640625 L 85.578125 295.09375 L 86.261719 298.488281 L 87.011719 301.820312 L 87.828125 305.09375 L 88.707031 308.308594 L 89.652344 311.464844 L 90.65625 314.558594 L 91.722656 317.589844 L 92.851562 320.566406 L 94.035156 323.480469 L 95.277344 326.332031 L 96.578125 329.125 L 97.933594 331.859375 L 99.34375 334.535156 L 100.808594 337.144531 L 102.324219 339.699219 L 103.890625 342.191406 L 105.511719 344.621094 L 107.179688 346.992188 L 108.902344 349.300781 L 110.667969 351.546875 L 112.484375 353.734375 L 114.347656 355.859375 L 116.257812 357.921875 L 118.210938 359.925781 L 120.210938 361.863281 L 122.253906 363.742188 L 124.34375 365.554688 L 126.476562 367.304688 L 128.648438 368.996094 L 130.863281 370.621094 L 133.121094 372.179688 L 135.417969 373.679688 L 137.757812 375.109375 L 140.132812 376.480469 L 142.550781 377.78125 L 145.007812 379.019531 L 147.5 380.191406 L 150.03125 381.296875 "/>
<path fill="none" stroke-width="3" stroke-linecap="butt" stroke-linejoin="miter" stroke="rgb(21.960784%, 59.607846%, 14.901961%)" stroke-opacity="1" stroke-miterlimit="2" d="M 257.289062 145.363281 L 258.542969 147.824219 L 259.886719 150.199219 L 261.324219 152.484375 L 262.839844 154.675781 L 264.429688 156.773438 L 266.09375 158.773438 L 267.824219 160.683594 L 269.609375 162.496094 L 271.457031 164.210938 L 273.351562 165.832031 L 275.292969 167.355469 L 277.277344 168.785156 L 279.300781 170.117188 L 281.355469 171.351562 L 283.445312 172.492188 L 285.558594 173.535156 L 287.695312 174.488281 L 289.851562 175.34375 L 292.027344 176.105469 L 294.210938 176.773438 L 296.410156 177.351562 L 298.613281 177.835938 L 300.820312 178.234375 L 303.03125 178.535156 L 305.242188 178.753906 L 307.445312 178.878906 L 309.644531 178.917969 L 311.832031 178.871094 L 314.007812 178.734375 L 316.171875 178.515625 L 318.316406 178.210938 L 320.445312 177.824219 L 322.550781 177.351562 L 324.632812 176.800781 L 326.6875 176.164062 L 328.714844 175.453125 L 330.710938 174.660156 L 332.675781 173.789062 L 334.601562 172.839844 L 336.492188 171.816406 L 338.34375 170.71875 L 340.152344 169.546875 L 341.917969 168.300781 L 343.636719 166.980469 L 345.304688 165.59375 L 346.921875 164.132812 L 348.488281 162.609375 L 349.996094 161.015625 L 351.449219 159.355469 L 352.839844 157.628906 L 354.164062 155.84375 L 355.425781 153.996094 L 356.621094 152.085938 L 357.746094 150.117188 L 358.796875 148.09375 L 359.773438 146.015625 L 360.667969 143.882812 L 361.488281 141.699219 L 362.21875 139.464844 L 362.867188 137.1875 L 363.425781 134.859375 L 363.890625 132.496094 L 364.261719 130.085938 L 364.535156 127.644531 L 364.710938 125.167969 L 364.78125 122.660156 L 364.742188 120.125 L 364.59375 117.566406 L 364.335938 114.988281 L 363.960938 112.394531 L 363.46875 109.789062 L 362.851562 107.179688 L 362.109375 104.566406 L 361.242188 101.957031 L 360.242188 99.359375 L 359.109375 96.777344 L 357.84375 94.222656 L 356.4375 91.695312 L 354.894531 89.207031 L 353.207031 86.761719 L 351.375 84.375 L 349.402344 82.054688 L 347.285156 79.808594 L 345.023438 77.644531 L 342.617188 75.578125 L 340.074219 73.621094 L 337.390625 71.78125 L 334.574219 70.074219 L 331.632812 68.507812 L 328.566406 67.101562 L 325.386719 65.863281 L 322.101562 64.808594 L 318.722656 63.945312 L 315.265625 63.289062 L 311.742188 62.847656 L 308.167969 62.628906 L 304.558594 62.644531 L 300.9375 62.894531 L 297.324219 63.390625 "/>
<path fill="none" stroke-width="3" stroke-linecap="butt" stroke-linejoin="miter" stroke="rgb(21.960784%, 59.607846%, 14.901961%)" stroke-opacity="1" stroke-miterlimit="2" d="M 297.324219 63.390625 L 296.488281 63.507812 L 295.652344 63.636719 L 294.820312 63.773438 L 293.988281 63.925781 L 293.15625 64.089844 L 292.332031 64.261719 L 291.507812 64.449219 L 290.683594 64.644531 L 289.867188 64.851562 L 289.050781 65.070312 L 288.238281 65.300781 L 287.429688 65.542969 L 286.628906 65.796875 L 285.828125 66.058594 L 285.03125 66.332031 L 284.238281 66.617188 L 283.453125 66.914062 L 282.671875 67.21875 L 281.894531 67.535156 L 281.121094 67.863281 L 280.355469 68.199219 L 279.597656 68.542969 L 278.839844 68.898438 L 278.09375 69.265625 L 277.347656 69.640625 L 276.613281 70.023438 L 275.882812 70.417969 L 275.160156 70.820312 L 274.441406 71.230469 L 273.730469 71.652344 L 273.027344 72.078125 L 272.332031 72.515625 L 271.640625 72.960938 L 270.957031 73.414062 L 270.28125 73.875 L 269.617188 74.34375 L 268.957031 74.820312 L 268.300781 75.300781 L 267.65625 75.792969 L 267.019531 76.289062 L 266.390625 76.792969 L 265.769531 77.304688 L 265.15625 77.820312 L 264.550781 78.34375 L 263.953125 78.871094 L 263.363281 79.40625 L 262.78125 79.949219 L 262.207031 80.492188 L 261.640625 81.046875 L 261.085938 81.601562 L 260.535156 82.164062 L 259.996094 82.730469 L 259.460938 83.300781 L 258.9375 83.878906 L 258.421875 84.457031 L 257.914062 85.042969 L 257.414062 85.628906 L 256.921875 86.222656 L 256.4375 86.816406 L 255.964844 87.417969 L 255.496094 88.019531 L 255.039062 88.625 L 254.589844 89.234375 L 254.144531 89.847656 L 253.710938 90.464844 L 253.285156 91.082031 L 252.867188 91.703125 L 252.457031 92.324219 L 252.054688 92.949219 L 251.660156 93.578125 L 251.277344 94.207031 L 250.898438 94.839844 L 250.527344 95.472656 L 250.164062 96.105469 L 249.808594 96.742188 L 249.460938 97.378906 L 249.121094 98.019531 L 248.789062 98.660156 L 248.464844 99.300781 L 248.148438 99.945312 L 247.839844 100.585938 L 247.535156 101.230469 L 247.242188 101.875 L 246.953125 102.523438 L 246.675781 103.167969 L 246.402344 103.816406 L 246.136719 104.460938 L 245.875 105.109375 L 245.625 105.757812 L 245.378906 106.402344 L 245.140625 107.050781 L 244.910156 107.699219 L 244.6875 108.347656 L 244.46875 108.992188 L 244.257812 109.640625 L 244.050781 110.289062 L 243.855469 110.933594 L 243.664062 111.578125 L 243.476562 112.222656 "/>
<path fill="none" stroke-width="3" stroke-linecap="butt" stroke-linejoin="miter" stroke="rgb(21.960784%, 59.607846%, 14.901961%)" stroke-opacity="1" stroke-miterlimit="2" d="M 243.476562 112.222656 L 241.894531 129.757812 L 243.023438 146.285156 L 246.148438 161.5 L 250.683594 175.347656 L 256.207031 187.882812 L 262.417969 199.214844 L 269.101562 209.453125 L 276.101562 218.707031 L 283.308594 227.074219 L 290.644531 234.636719 L 298.042969 241.476562 L 305.460938 247.648438 L 312.867188 253.21875 L 320.230469 258.234375 L 327.535156 262.734375 L 334.757812 266.757812 L 341.894531 270.34375 L 348.929688 273.511719 L 355.855469 276.296875 L 362.667969 278.722656 L 369.359375 280.804688 L 375.925781 282.5625 L 382.363281 284.015625 L 388.671875 285.183594 L 394.84375 286.074219 L 400.882812 286.703125 L 406.785156 287.082031 L 412.546875 287.21875 L 418.171875 287.128906 L 423.652344 286.820312 L 428.992188 286.300781 L 434.183594 285.574219 L 439.234375 284.65625 L 444.140625 283.546875 L 448.898438 282.257812 L 453.511719 280.789062 L 457.972656 279.152344 L 462.289062 277.351562 L 466.453125 275.390625 L 470.464844 273.269531 L 474.324219 271.003906 L 478.03125 268.589844 L 481.582031 266.03125 L 484.976562 263.335938 L 488.214844 260.503906 L 491.292969 257.542969 L 494.210938 254.453125 L 496.964844 251.238281 L 499.558594 247.898438 L 501.984375 244.445312 L 504.242188 240.871094 L 506.328125 237.1875 L 508.242188 233.394531 L 509.984375 229.492188 L 511.546875 225.484375 L 512.925781 221.375 L 514.125 217.167969 L 515.136719 212.859375 L 515.960938 208.460938 L 516.589844 203.964844 L 517.019531 199.382812 L 517.25 194.714844 L 517.273438 189.960938 L 517.085938 185.125 L 516.683594 180.210938 L 516.058594 175.222656 L 515.207031 170.160156 L 514.125 165.027344 L 512.800781 159.828125 L 511.230469 154.570312 L 509.40625 149.25 L 507.316406 143.878906 L 504.957031 138.457031 L 502.316406 132.988281 L 499.378906 127.484375 L 496.140625 121.949219 L 492.589844 116.386719 L 488.703125 110.808594 L 484.472656 105.222656 L 479.882812 99.640625 L 474.910156 94.070312 L 469.539062 88.53125 L 463.75 83.039062 L 457.511719 77.613281 L 450.800781 72.273438 L 443.585938 67.050781 L 435.835938 61.976562 L 427.511719 57.097656 L 418.570312 52.460938 L 408.96875 48.128906 L 398.65625 44.191406 L 387.582031 40.75 L 375.6875 37.9375 L 362.929688 35.941406 L 349.269531 35 L 334.714844 35.429688 L 319.351562 37.652344 L 303.429688 42.1875 L 287.476562 49.617188 "/>
<path fill="none" stroke-width="3" stroke-linecap="butt" stroke-linejoin="miter" stroke="rgb(21.960784%, 59.607846%, 14.901961%)" stroke-opacity="1" stroke-miterlimit="2" d="M 287.476562 49.617188 L 275.535156 54.640625 L 264.371094 61.199219 L 254.277344 69.046875 L 245.421875 77.882812 L 237.859375 87.382812 L 231.550781 97.265625 L 226.386719 107.304688 L 222.253906 117.339844 L 219.019531 127.257812 L 216.566406 136.980469 L 214.785156 146.46875 L 213.585938 155.691406 L 212.890625 164.636719 L 212.628906 173.300781 L 212.746094 181.679688 L 213.199219 189.78125 L 213.9375 197.613281 L 214.929688 205.179688 L 216.152344 212.496094 L 217.570312 219.5625 L 219.164062 226.394531 L 220.917969 233 L 222.8125 239.382812 L 224.832031 245.554688 L 226.964844 251.527344 L 229.199219 257.300781 L 231.527344 262.886719 L 233.933594 268.289062 L 236.417969 273.515625 L 238.964844 278.574219 L 241.574219 283.464844 L 244.238281 288.199219 L 246.949219 292.777344 L 249.707031 297.207031 L 252.503906 301.492188 L 255.335938 305.636719 L 258.203125 309.644531 L 261.09375 313.519531 L 264.015625 317.261719 L 266.957031 320.878906 L 269.917969 324.375 L 272.898438 327.75 L 275.890625 331.007812 L 278.902344 334.152344 L 281.921875 337.183594 L 284.949219 340.105469 L 287.984375 342.921875 L 291.027344 345.632812 L 294.078125 348.238281 L 297.128906 350.746094 L 300.179688 353.15625 L 303.234375 355.46875 L 306.289062 357.6875 L 309.339844 359.8125 L 312.386719 361.84375 L 315.433594 363.785156 L 318.476562 365.640625 L 321.511719 367.410156 L 324.539062 369.089844 L 327.558594 370.6875 L 330.574219 372.203125 L 333.578125 373.632812 L 336.574219 374.984375 L 339.558594 376.257812 L 342.53125 377.453125 L 345.492188 378.566406 L 348.445312 379.605469 L 351.382812 380.570312 L 354.304688 381.460938 L 357.214844 382.277344 L 360.109375 383.019531 L 362.988281 383.6875 L 365.855469 384.289062 L 368.703125 384.816406 L 371.53125 385.277344 L 374.347656 385.667969 L 377.144531 385.988281 L 379.921875 386.242188 L 382.679688 386.425781 L 385.421875 386.546875 L 388.140625 386.601562 L 390.839844 386.589844 L 393.519531 386.511719 L 396.179688 386.371094 L 398.816406 386.167969 L 401.429688 385.898438 L 404.023438 385.566406 L 406.59375 385.175781 L 409.140625 384.71875 L 411.664062 384.199219 L 414.160156 383.621094 L 416.636719 382.980469 L 419.082031 382.28125 L 421.507812 381.519531 L 423.902344 380.699219 L 426.273438 379.816406 L 428.617188 378.878906 L 430.933594 377.878906 L 433.222656 376.820312 "/>
<path fill="none" stroke-width="3" stroke-linecap="butt" stroke-linejoin="miter" stroke="rgb(58.431375%, 34.509805%, 69.803923%)" stroke-opacity="1" stroke-miterlimit="2" d="M 361.75 101.863281 L 360.359375 98.125 L 358.730469 94.417969 L 356.863281 90.765625 L 354.753906 87.179688 L 352.398438 83.6875 L 349.796875 80.304688 L 346.953125 77.058594 L 343.871094 73.96875 L 340.554688 71.058594 L 337.019531 68.351562 L 333.277344 65.875 L 329.34375 63.644531 L 325.238281 61.679688 L 320.984375 60.007812 L 316.609375 58.632812 L 312.136719 57.574219 L 307.59375 56.839844 L 303.019531 56.429688 L 298.433594 56.351562 L 293.875 56.597656 L 289.363281 57.160156 L 284.933594 58.03125 L 280.605469 59.195312 L 276.402344 60.640625 L 272.34375 62.34375 L 268.449219 64.292969 L 264.730469 66.460938 L 261.199219 68.835938 L 257.863281 71.390625 L 254.730469 74.105469 L 251.808594 76.96875 L 249.089844 79.949219 L 246.585938 83.042969 L 244.292969 86.222656 L 242.207031 89.476562 L 240.328125 92.789062 L 238.652344 96.148438 L 237.171875 99.539062 L 235.886719 102.949219 L 234.789062 106.375 L 233.878906 109.796875 L 233.144531 113.210938 L 232.582031 116.613281 L 232.183594 119.988281 L 231.949219 123.332031 L 231.871094 126.636719 L 231.941406 129.902344 L 232.15625 133.117188 L 232.511719 136.28125 L 233 139.386719 L 233.613281 142.433594 L 234.355469 145.414062 L 235.210938 148.328125 L 236.183594 151.171875 L 237.261719 153.941406 L 238.445312 156.632812 L 239.726562 159.246094 L 241.105469 161.78125 L 242.574219 164.234375 L 244.128906 166.601562 L 245.765625 168.882812 L 247.484375 171.078125 L 249.277344 173.183594 L 251.140625 175.199219 L 253.070312 177.125 L 255.066406 178.957031 L 257.121094 180.695312 L 259.234375 182.339844 L 261.402344 183.886719 L 263.617188 185.339844 L 265.882812 186.695312 L 268.191406 187.953125 L 270.539062 189.113281 L 272.925781 190.171875 L 275.347656 191.132812 L 277.804688 191.992188 L 280.285156 192.75 L 282.792969 193.40625 L 285.324219 193.960938 L 287.875 194.414062 L 290.441406 194.761719 L 293.019531 195.007812 L 295.609375 195.148438 L 298.207031 195.183594 L 300.8125 195.113281 L 303.414062 194.9375 L 306.019531 194.65625 L 308.617188 194.269531 L 311.203125 193.777344 L 313.78125 193.175781 L 316.347656 192.464844 L 318.890625 191.648438 L 321.414062 190.726562 L 323.914062 189.691406 L 326.382812 188.550781 L 328.820312 187.300781 L 331.222656 185.945312 L 333.585938 184.476562 L 335.902344 182.902344 "/>
<path fill="none" stroke-width="3" stroke-linecap="butt" stroke-linejoin="miter" stroke="rgb(58.431375%, 34.509805%, 69.803923%)" stroke-opacity="1" stroke-miterlimit="2" d="M 335.902344 182.902344 L 337.109375 182.09375 L 338.296875 181.25 L 339.46875 180.363281 L 340.617188 179.4375 L 341.746094 178.472656 L 342.851562 177.472656 L 343.9375 176.429688 L 344.996094 175.347656 L 346.035156 174.226562 L 347.042969 173.066406 L 348.027344 171.867188 L 348.988281 170.632812 L 349.914062 169.355469 L 350.816406 168.042969 L 351.683594 166.691406 L 352.523438 165.300781 L 353.328125 163.871094 L 354.097656 162.40625 L 354.832031 160.902344 L 355.53125 159.359375 L 356.191406 157.78125 L 356.8125 156.164062 L 357.394531 154.507812 L 357.929688 152.816406 L 358.425781 151.089844 L 358.871094 149.328125 L 359.273438 147.527344 L 359.621094 145.695312 L 359.921875 143.824219 L 360.164062 141.921875 L 360.355469 139.980469 L 360.484375 138.011719 L 360.554688 136.007812 L 360.5625 133.972656 L 360.507812 131.90625 L 360.382812 129.8125 L 360.183594 127.691406 L 359.914062 125.539062 L 359.566406 123.367188 L 359.136719 121.167969 L 358.625 118.949219 L 358.023438 116.707031 L 357.332031 114.453125 L 356.542969 112.183594 L 355.65625 109.90625 L 354.664062 107.621094 L 353.5625 105.332031 L 352.347656 103.046875 L 351.015625 100.769531 L 349.5625 98.507812 L 347.976562 96.269531 L 346.261719 94.058594 L 344.410156 91.890625 L 342.414062 89.765625 L 340.273438 87.707031 L 337.984375 85.71875 L 335.546875 83.820312 L 332.957031 82.023438 L 330.214844 80.34375 L 327.320312 78.808594 L 324.289062 77.425781 L 321.117188 76.226562 L 317.820312 75.222656 L 314.414062 74.4375 L 310.917969 73.886719 L 307.351562 73.59375 L 303.746094 73.5625 L 300.121094 73.808594 L 296.511719 74.335938 L 292.953125 75.136719 L 289.46875 76.210938 L 286.089844 77.542969 L 282.847656 79.117188 L 279.753906 80.910156 L 276.832031 82.902344 L 274.09375 85.066406 L 271.550781 87.382812 L 269.203125 89.820312 L 267.050781 92.359375 L 265.097656 94.980469 L 263.335938 97.664062 L 261.761719 100.390625 L 260.367188 103.144531 L 259.144531 105.910156 L 258.089844 108.679688 L 257.1875 111.445312 L 256.4375 114.191406 L 255.824219 116.917969 L 255.34375 119.613281 L 254.988281 122.273438 L 254.75 124.894531 L 254.621094 127.472656 L 254.59375 130.007812 L 254.664062 132.492188 L 254.828125 134.929688 L 255.078125 137.3125 L 255.40625 139.644531 L 255.808594 141.921875 L 256.285156 144.144531 "/>
<path fill="none" stroke-width="3" stroke-linecap="butt" stroke-linejoin="miter" stroke="rgb(58.431375%, 34.509805%, 69.803923%)" stroke-opacity="1" stroke-miterlimit="2" d="M 256.285156 144.144531 L 257.882812 150.046875 L 259.8125 155.621094 L 262.023438 160.875 L 264.464844 165.808594 L 267.101562 170.441406 L 269.898438 174.773438 L 272.832031 178.824219 L 275.875 182.601562 L 279.003906 186.117188 L 282.210938 189.386719 L 285.472656 192.410156 L 288.777344 195.210938 L 292.117188 197.789062 L 295.480469 200.15625 L 298.855469 202.320312 L 302.238281 204.292969 L 305.621094 206.078125 L 308.996094 207.683594 L 312.359375 209.113281 L 315.707031 210.378906 L 319.03125 211.480469 L 322.332031 212.429688 L 325.601562 213.226562 L 328.839844 213.878906 L 332.042969 214.386719 L 335.210938 214.761719 L 338.332031 215 L 341.414062 215.109375 L 344.449219 215.097656 L 347.4375 214.957031 L 350.375 214.703125 L 353.261719 214.332031 L 356.09375 213.847656 L 358.867188 213.25 L 361.585938 212.546875 L 364.246094 211.738281 L 366.847656 210.828125 L 369.382812 209.820312 L 371.855469 208.710938 L 374.261719 207.503906 L 376.601562 206.207031 L 378.871094 204.816406 L 381.074219 203.335938 L 383.199219 201.765625 L 385.253906 200.109375 L 387.234375 198.371094 L 389.132812 196.546875 L 390.957031 194.640625 L 392.699219 192.65625 L 394.355469 190.59375 L 395.929688 188.453125 L 397.417969 186.238281 L 398.816406 183.949219 L 400.125 181.585938 L 401.34375 179.152344 L 402.464844 176.652344 L 403.488281 174.082031 L 404.410156 171.445312 L 405.230469 168.746094 L 405.949219 165.980469 L 406.558594 163.15625 L 407.054688 160.269531 L 407.4375 157.324219 L 407.707031 154.324219 L 407.851562 151.273438 L 407.871094 148.164062 L 407.765625 145.007812 L 407.527344 141.800781 L 407.152344 138.550781 L 406.636719 135.257812 L 405.976562 131.925781 L 405.164062 128.554688 L 404.191406 125.152344 L 403.0625 121.71875 L 401.761719 118.261719 L 400.285156 114.785156 L 398.628906 111.289062 L 396.78125 107.789062 L 394.734375 104.28125 L 392.480469 100.785156 L 390.011719 97.296875 L 387.316406 93.835938 L 384.382812 90.410156 L 381.203125 87.03125 L 377.765625 83.71875 L 374.054688 80.488281 L 370.058594 77.363281 L 365.761719 74.363281 L 361.15625 71.523438 L 356.226562 68.875 L 350.964844 66.460938 L 345.355469 64.328125 L 339.402344 62.535156 L 333.105469 61.152344 L 326.472656 60.25 L 319.542969 59.921875 L 312.363281 60.265625 L 305.015625 61.382812 L 297.609375 63.359375 "/>
<path fill="none" stroke-width="3" stroke-linecap="butt" stroke-linejoin="miter" stroke="rgb(58.431375%, 34.509805%, 69.803923%)" stroke-opacity="1" stroke-miterlimit="2" d="M 297.609375 63.359375 L 281.570312 68.773438 L 267.296875 77.484375 L 255.585938 88.410156 L 246.492188 100.410156 L 239.644531 112.691406 L 234.59375 124.820312 L 230.945312 136.578125 L 228.398438 147.878906 L 226.71875 158.695312 L 225.738281 169.039062 L 225.316406 178.917969 L 225.363281 188.363281 L 225.792969 197.398438 L 226.546875 206.050781 L 227.574219 214.339844 L 228.835938 222.292969 L 230.300781 229.925781 L 231.941406 237.257812 L 233.730469 244.308594 L 235.65625 251.089844 L 237.695312 257.617188 L 239.839844 263.90625 L 242.074219 269.964844 L 244.386719 275.800781 L 246.773438 281.429688 L 249.222656 286.859375 L 251.726562 292.097656 L 254.28125 297.148438 L 256.882812 302.027344 L 259.519531 306.730469 L 262.195312 311.269531 L 264.898438 315.648438 L 267.632812 319.875 L 270.390625 323.949219 L 273.167969 327.878906 L 275.960938 331.671875 L 278.773438 335.324219 L 281.601562 338.84375 L 284.4375 342.238281 L 287.28125 345.5 L 290.136719 348.644531 L 292.996094 351.664062 L 295.859375 354.570312 L 298.726562 357.359375 L 301.59375 360.039062 L 304.460938 362.605469 L 307.328125 365.066406 L 310.195312 367.417969 L 313.058594 369.667969 L 315.914062 371.816406 L 318.765625 373.867188 L 321.613281 375.816406 L 324.453125 377.671875 L 327.28125 379.429688 L 330.105469 381.09375 L 332.917969 382.667969 L 335.722656 384.148438 L 338.511719 385.539062 L 341.292969 386.84375 L 344.0625 388.058594 L 346.816406 389.1875 L 349.558594 390.234375 L 352.285156 391.191406 L 355 392.070312 L 357.695312 392.863281 L 360.378906 393.578125 L 363.042969 394.210938 L 365.691406 394.761719 L 368.320312 395.234375 L 370.933594 395.628906 L 373.527344 395.945312 L 376.101562 396.183594 L 378.65625 396.347656 L 381.191406 396.433594 L 383.707031 396.445312 L 386.199219 396.382812 L 388.671875 396.242188 L 391.121094 396.03125 L 393.550781 395.746094 L 395.953125 395.386719 L 398.332031 394.953125 L 400.6875 394.449219 L 403.019531 393.875 L 405.324219 393.226562 L 407.605469 392.503906 L 409.859375 391.714844 L 412.085938 390.851562 L 414.285156 389.917969 L 416.457031 388.914062 L 418.597656 387.835938 L 420.710938 386.691406 L 422.796875 385.476562 L 424.847656 384.191406 L 426.871094 382.835938 L 428.859375 381.410156 L 430.820312 379.914062 L 432.742188 378.347656 L 434.632812 376.710938 L 436.492188 375.003906 "/>
</svg>
